<svg id="visual" viewBox="0 0 900 600" width="900" height="600" xmlns="http://www.w3.org/2000/svg" xmlns:xlink="http://www.w3.org/1999/xlink" version="1.1"><rect x="0" y="0" width="900" height="600" fill="#14b157"></rect><defs><linearGradient id="grad1_0" x1="33.3%" y1="0%" x2="100%" y2="100%"><stop offset="20%" stop-color="#14b157" stop-opacity="1"></stop><stop offset="80%" stop-color="#14b157" stop-opacity="1"></stop></linearGradient></defs><defs><linearGradient id="grad2_0" x1="0%" y1="0%" x2="66.7%" y2="100%"><stop offset="20%" stop-color="#14b157" stop-opacity="1"></stop><stop offset="80%" stop-color="#14b157" stop-opacity="1"></stop></linearGradient></defs><g transform="translate(900, 0)"><path d="M0 513.8C-99.7 506 -199.4 498.3 -256.9 445C-314.4 391.6 -329.7 292.8 -365.5 211C-401.2 129.2 -457.5 64.6 -513.8 0L0 0Z" fill="#001122"></path></g><g transform="translate(0, 600)"><path d="M0 -513.8C70.5 -467.7 141 -421.6 222 -384.5C303 -347.5 394.6 -319.5 445 -256.9C495.3 -194.3 504.6 -97.2 513.8 0L0 0Z" fill="#001122"></path></g></svg>