<svg xmlns="http://www.w3.org/2000/svg" version="1.1" xmlns:xlink="http://www.w3.org/1999/xlink" xmlns:svgjs="http://svgjs.dev/svgjs" viewBox="0 0 600 600" opacity="1"><path d="M61.64921569824219,430.3664855957031C37.04188537597656,381.15182367960614,128.92670440673828,154.71204121907553,174.73822021484375,119.3717269897461C220.54973602294922,84.03141276041666,283.63872782389325,203.79580307006836,336.518310546875,218.32460021972656C389.39789326985675,232.85339736938477,458.37697347005206,178.7958196004232,492.0157165527344,206.5445098876953C525.6544596354166,234.29320017496744,566.6230214436849,350.1308771769206,538.3507690429688,384.8167419433594C510.0785166422526,419.50260670979816,401.8324610392253,407.0680745442708,322.3822021484375,414.6596984863281C242.93194325764972,422.25132242838544,86.25654602050781,479.5811475118001,61.64921569824219,430.3664855957031C37.04188537597656,381.15182367960614,128.92670440673828,154.71204121907553,174.73822021484375,119.3717269897461" fill="hsl(335, 77%, 60%)"></path><path d="M-15.314137358941935 406.02093757509516C-39.92146768120756 356.8062756589982 51.96335134955416 130.36649319846757 97.77486715765963 95.02617896913813C143.5863829657651 59.68586473980869 206.67537476670913 179.4502550494604 259.5549574896909 193.9790521991186C312.43454021267263 208.5078493487768 381.41362041286794 154.45027157981522 415.05236349555025 182.19896186708735C448.6911065782325 209.94765215435947 489.6596683865008 325.7853291563126 461.3874159857846 360.4711939227514C433.1151635850685 395.1570586891902 324.86910798204116 382.72252652366285 245.41884909125338 390.31415046572016C165.9685902004656 397.90577440777747 9.29319296332369 455.23559949119215 -15.314137358941935 406.02093757509516C-39.92146768120756 356.8062756589982 51.96335134955416 130.36649319846757 97.77486715765963 95.02617896913813 " fill-opacity="1" fill="hsl(180, 92%, 47%)" opacity="1" stroke-opacity="1" stroke-width="0" stroke="hsl(340, 45%, 30%)" transform="matrix(0.9025,0,0,0.9025,97.00636264801028,100.07237508773801)"></path><defs></defs></svg>